<?xml version="1.0" encoding="utf-8"?>
<svg xmlns="http://www.w3.org/2000/svg" width="24" height="24" viewBox="0 0 24 24" fill="currentColor" class="icon icon-tabler icons-tabler-filled icon-tabler-layout-kanban">
  <path stroke="none" d="M0 0h24v24H0z" fill="none"/>
  <path d="M10 3a1 1 0 0 1 0 2h-6a1 1 0 1 1 0 -2z" style="fill: rgb(194, 55, 167);"/>
  <path d="M20 3a1 1 0 0 1 0 2h-6a1 1 0 0 1 0 -2z" style="fill: rgb(135, 49, 146);"/>
  <path d="M8 7a3 3 0 0 1 3 3v8a3 3 0 0 1 -3 3h-2a3 3 0 0 1 -3 -3v-8a3 3 0 0 1 3 -3z" style="fill: rgb(12, 8, 93);"/>
  <path d="M18 7a3 3 0 0 1 3 3v2a3 3 0 0 1 -3 3h-2a3 3 0 0 1 -3 -3v-2a3 3 0 0 1 3 -3z" style="fill: rgb(47, 47, 139);"/>
</svg>